<?xml version="1.0" encoding="UTF-8"?>
<svg version="1.1" xmlns="http://www.w3.org/2000/svg" width="895" height="162">
<path d="M0 0 C10.23 0.33 20.46 0.66 31 1 C31 40.6 31 80.2 31 121 C22.42 121 13.84 121 5 121 C4.14123835 116.70619175 3.8787712 113.25181598 3.88647461 108.91479492 C3.88632858 108.22156128 3.88618256 107.52832764 3.8860321 106.81408691 C3.88672549 104.53618171 3.89449085 102.25835957 3.90234375 99.98046875 C3.90420997 98.39577784 3.90563291 96.81108635 3.90663147 95.22639465 C3.91044057 91.0655049 3.92025708 86.90465032 3.93133545 82.74377441 C3.94158418 78.49390132 3.9461365 74.24402252 3.95117188 69.99414062 C3.96188084 61.66274431 3.97893789 53.33137654 4 45 C3.19163696 46.61672607 3.19163696 46.61672607 2.36694336 48.26611328 C-5.75537109 64.51074219 -13.87768555 80.75537109 -22 97 C-28.27 97 -34.54 97 -41 97 C-46.44404786 86.80199486 -51.79284017 76.62489983 -56.60327148 66.11206055 C-60.10430379 58.54061797 -64.04568734 51.41433623 -68 44 C-68.33 69.41 -68.66 94.82 -69 121 C-77.25 121 -85.5 121 -94 121 C-95.02586969 116.89652122 -95.14063975 113.20610146 -95.12939453 109.01977539 C-95.13114685 108.21721313 -95.13289917 107.41465088 -95.13470459 106.58776855 C-95.13911505 103.92437592 -95.13618101 101.26104961 -95.1328125 98.59765625 C-95.13348741 96.72228483 -95.13445899 94.84691349 -95.13571167 92.97154236 C-95.13718889 89.02130305 -95.13503932 85.07108629 -95.13037109 81.12084961 C-95.12477063 76.14784193 -95.12797696 71.17488894 -95.13382339 66.20188332 C-95.15538421 44.43828213 -94.91614052 22.7474308 -94 1 C-82.78 1 -71.56 1 -60 1 C-55.73284715 9.4567211 -51.53095599 17.92830611 -47.5 26.5 C-43.76304845 34.4432397 -39.89463321 42.3116483 -35.93505859 50.14599609 C-34.28078552 53.42603519 -32.64142897 56.71351859 -31 60 C-26.15992498 51.17708395 -21.63704055 42.25615943 -17.36645508 33.14379883 C-3.42599338 3.42599338 -3.42599338 3.42599338 0 0 Z " fill="#FEFEFE" transform="translate(542,13)"/>
<path d="M0 0 C12.12836253 10.54330487 20.99346998 24.63996875 22.30517578 40.92431641 C23.44877985 61.39851836 18.3514364 78.65105147 5.125 94.6875 C5.764375 95.326875 6.40375 95.96625 7.0625 96.625 C7.50980469 97.07488281 7.95710938 97.52476563 8.41796875 97.98828125 C9.74398037 99.30822416 11.08243321 100.61567379 12.42578125 101.91796875 C13.63814453 103.10326172 13.63814453 103.10326172 14.875 104.3125 C15.65359375 105.06789063 16.4321875 105.82328125 17.234375 106.6015625 C19.77411031 109.40366715 20.09705969 111.31030577 20.375 115.0625 C20.02131484 120.19093488 18.42724841 122.45379098 14.75 125.9375 C11.34822249 128.20535167 9.28010988 129.09564211 5.1887207 128.32080078 C-1.66432196 126.37278177 -5.61638535 122.73529117 -10.4375 117.625 C-11.16001953 116.89216797 -11.88253906 116.15933594 -12.62695312 115.40429688 C-17.875 109.99736873 -17.875 109.99736873 -17.875 107.6875 C-18.74382812 107.96464844 -19.61265625 108.24179688 -20.5078125 108.52734375 C-22.23644531 109.07068359 -22.23644531 109.07068359 -24 109.625 C-25.13695313 109.98464844 -26.27390625 110.34429687 -27.4453125 110.71484375 C-41.81418968 114.78984423 -57.51686148 112.77040316 -70.8125 106 C-76.46575575 102.59432089 -81.21775896 98.33676632 -85.875 93.6875 C-86.5246875 93.04941406 -87.174375 92.41132812 -87.84375 91.75390625 C-99.87054289 79.06774972 -103.41980986 62.3228404 -103.15625 45.44140625 C-102.43849401 27.67335672 -93.79680282 13.23377907 -81.375 1.0625 C-57.72159828 -19.36708433 -24.24615051 -18.84329441 0 0 Z M-68.6875 24.5625 C-76.9691357 34.59269451 -77.88060725 45.0819173 -76.875 57.6875 C-74.9498198 68.38005492 -67.93793707 76.05396494 -59.25 82.1875 C-51.15049791 87.52510291 -41.25232465 87.79166384 -31.875 86.6875 C-22.35203771 84.32870174 -14.42742083 79.09857139 -9.0234375 70.8671875 C-3.28140972 60.66216182 -2.22658181 49.93952116 -4.5234375 38.44140625 C-8.29247968 27.08595867 -15.46429085 20.2306652 -25.875 14.6875 C-41.36789275 7.9860288 -57.40815845 12.34721309 -68.6875 24.5625 Z " fill="#C72E83" transform="translate(111.875,22.3125)"/>
<path d="M0 0 C1.084021 0.00523682 2.16804199 0.01047363 3.28491211 0.01586914 C5.03964844 0.02070313 5.03964844 0.02070313 6.82983398 0.02563477 C8.67738281 0.03820313 8.67738281 0.03820313 10.56225586 0.05102539 C12.41560547 0.05779297 12.41560547 0.05779297 14.30639648 0.06469727 C17.37089703 0.07652931 20.43530307 0.09301366 23.49975586 0.11352539 C24.82929378 2.77260123 24.61961617 4.77917907 24.61328125 7.7565918 C24.61320572 8.9376651 24.61313019 10.1187384 24.61305237 11.33560181 C24.60789108 12.61583221 24.6027298 13.89606262 24.59741211 15.21508789 C24.59599716 16.52182465 24.59458221 17.8285614 24.59312439 19.17489624 C24.5893048 22.65028797 24.57947928 26.12563796 24.56842041 29.60101318 C24.55819429 33.14684484 24.55362419 36.69268324 24.54858398 40.23852539 C24.53785652 47.19687588 24.52078678 54.15519863 24.49975586 61.11352539 C26.39497921 58.90838773 28.28938764 56.70255853 30.18334961 54.49633789 C30.71327515 53.87992432 31.24320068 53.26351074 31.78918457 52.62841797 C39.88974425 43.76899371 39.88974425 43.76899371 46.65893555 33.99389648 C48.49975586 32.11352539 48.49975586 32.11352539 51.77783203 31.65942383 C53.11629666 31.66005524 54.45486824 31.68254808 55.79272461 31.72290039 C56.8517675 31.73139008 56.8517675 31.73139008 57.9322052 31.74005127 C60.18458212 31.76242128 62.43536089 31.8126134 64.68725586 31.86352539 C66.21522765 31.88358983 67.74322442 31.90184071 69.27124023 31.91821289 C73.01469342 31.96228737 76.75695381 32.03131465 80.49975586 32.11352539 C78.63416002 36.13846067 75.96796262 39.05015994 72.93725586 42.23852539 C71.84822287 43.40082565 70.75968569 44.56359066 69.67163086 45.72680664 C69.13344727 46.29995605 68.59526367 46.87310547 68.04077148 47.46362305 C65.16301414 50.54472003 62.35022105 53.68335947 59.54272461 56.82836914 C58.1812587 58.35123254 56.80879931 59.86433881 55.42553711 61.36743164 C54.7900293 62.06739258 54.15452148 62.76735352 53.49975586 63.48852539 C52.94288086 64.09438477 52.38600586 64.70024414 51.81225586 65.32446289 C50.29156534 67.3973089 49.77189823 68.55271962 49.49975586 71.11352539 C50.63657225 73.6221282 50.63657225 73.6221282 52.44116211 76.15258789 C53.09101074 77.12357422 53.74085938 78.09456055 54.41040039 79.0949707 C55.0998877 80.09109375 55.789375 81.0872168 56.49975586 82.11352539 C57.14412598 83.05035156 57.78849609 83.98717773 58.45239258 84.95239258 C60.43373804 87.80755455 62.43383224 90.64882127 64.43725586 93.48852539 C80.49975586 116.42570137 80.49975586 116.42570137 80.49975586 120.11352539 C76.35587852 120.36234943 72.21603467 120.5428551 68.06689453 120.6628418 C66.65889743 120.71287952 65.25141363 120.78094532 63.84521484 120.86791992 C52.25990102 121.56607779 52.25990102 121.56607779 48.19042969 118.20776367 C46.33382689 115.59955065 44.91150111 112.98512962 43.49975586 110.11352539 C42.45491961 108.36981445 41.39903757 106.63267086 40.33178711 104.90258789 C38.80356153 102.3024409 37.28740499 99.69564422 35.77514648 97.08618164 C32.2650099 91.11342652 32.2650099 91.11342652 27.49975586 86.11352539 C24.2135898 89.61774903 24.08791784 92.35227989 23.98803711 97.06665039 C23.97008591 97.72687195 23.9521347 98.38709351 23.93363953 99.06732178 C23.87966777 101.16599228 23.84568543 103.26443716 23.81225586 105.36352539 C23.77907091 106.79064004 23.74458015 108.21772495 23.70874023 109.64477539 C23.6214999 113.13438873 23.5613286 116.62298792 23.49975586 120.11352539 C14.91975586 120.11352539 6.33975586 120.11352539 -2.50024414 120.11352539 C-3.16182177 116.14405963 -3.62544681 113.01284061 -3.62722778 109.10881042 C-3.63004761 108.15120819 -3.63286743 107.19360596 -3.63577271 106.20698547 C-3.63273636 104.65674934 -3.63273636 104.65674934 -3.62963867 103.07519531 C-3.63139099 101.97377197 -3.63314331 100.87234863 -3.63494873 99.73754883 C-3.63934117 96.10634779 -3.63643943 92.47519565 -3.63305664 88.84399414 C-3.63373019 86.32147716 -3.63470064 83.79896024 -3.63595581 81.27644348 C-3.63742904 75.99662782 -3.63538483 70.71682487 -3.63061523 65.43701172 C-3.62515961 59.32708659 -3.62694697 53.21719476 -3.63244164 47.10727042 C-3.63751709 41.22862353 -3.63699235 35.34998704 -3.63405991 29.47133827 C-3.63339074 26.96855985 -3.63421871 24.46578059 -3.63653946 21.96300316 C-3.63906368 18.47693969 -3.63522932 14.99094139 -3.62963867 11.50488281 C-3.6316629 10.4612709 -3.63368713 9.417659 -3.63577271 8.34242249 C-3.63295288 7.39891937 -3.63013306 6.45541626 -3.62722778 5.48332214 C-3.62685076 4.65873599 -3.62647373 3.83414984 -3.62608528 2.98457623 C-3.42948181 0.06140595 -2.93772711 0.13338962 0 0 Z " fill="#FDFEFD" transform="translate(363.500244140625,13.886474609375)"/>
<path d="M0 0 C9.99912015 7.28688141 15.86341241 16.89632715 18.89453125 28.85546875 C20.76665177 41.79573035 18.54935003 55.32838193 11.25 66.3125 C3.5734384 75.82353404 -5.86533758 81.53017967 -17.75 84.3125 C-20.69361628 84.60047372 -23.60622479 84.64661066 -26.5625 84.625 C-27.35712646 84.62008545 -28.15175293 84.6151709 -28.97045898 84.61010742 C-40.81538371 84.37405629 -50.82196576 80.13515857 -59.75 72.3125 C-69.46121104 59.85549956 -73.12791404 45.98264935 -71.25 30.3125 C-68.54558953 16.89790769 -61.0700276 6.13165697 -49.8125 -1.5625 C-34.56622263 -10.13482327 -14.76909415 -8.9866183 0 0 Z M-41.0625 22.5625 C-45.44582432 29.70569518 -46.95243678 36.35041761 -45.28125 44.63671875 C-43.71982541 50.11099901 -41.16697111 54.63847564 -36.75 58.3125 C-31.2851378 61.05870806 -25.73427957 60.97020237 -19.75 60.3125 C-14.00752653 57.54380744 -10.29548103 53.1140755 -7.75 47.3125 C-6.03212028 39.29111002 -6.80454002 31.85987582 -10.4375 24.5 C-13.58977711 20.15496939 -16.70419278 18.45467771 -21.75 16.5625 C-29.66295115 15.57338111 -35.31715723 16.97243676 -41.0625 22.5625 Z " fill="#FEFEFE" transform="translate(654.75,50.6875)"/>
<path d="M0 0 C8.58 0 17.16 0 26 0 C27.18685753 2.37371507 27.10886588 3.76876193 27.08178711 6.41455078 C27.0752562 7.32955353 27.06872528 8.24455627 27.06199646 9.18728638 C27.05056107 10.179935 27.03912567 11.17258362 27.02734375 12.1953125 C27.01468871 14.29426913 27.00232841 16.39322756 26.99023438 18.4921875 C26.96549061 21.80344213 26.93760535 25.11460373 26.90405273 28.42578125 C26.87369045 31.61979743 26.85601898 34.81369723 26.83984375 38.0078125 C26.82638412 38.98831573 26.8129245 39.96881897 26.79905701 40.97903442 C26.77441345 47.79072052 27.24651522 53.77358801 30.5625 59.875 C34.06451756 62.92804095 37.41361775 63.68182458 42 64 C46.4677356 63.40430192 48.4447549 62.4935512 51.8125 59.5 C56.79189014 52.76367749 56.27589561 43.20822066 56.16015625 35.21484375 C56.15495468 34.23254288 56.14975311 33.250242 56.14439392 32.23817444 C56.12674802 29.13779082 56.09555587 26.03775442 56.0625 22.9375 C56.03489054 19.805147 56.01023137 16.67283837 55.99131775 13.54042053 C55.97904196 11.59949054 55.9614203 9.65858573 55.93800354 7.71775818 C55.93147263 6.84917679 55.92494171 5.9805954 55.91821289 5.08569336 C55.90995987 4.31865585 55.90170685 3.55161835 55.89320374 2.76133728 C56 1 56 1 57 0 C58.85369611 -0.08737645 60.71067541 -0.10698153 62.56640625 -0.09765625 C63.69111328 -0.09443359 64.81582031 -0.09121094 65.97460938 -0.08789062 C67.15861328 -0.07951172 68.34261719 -0.07113281 69.5625 -0.0625 C70.75037109 -0.05798828 71.93824219 -0.05347656 73.16210938 -0.04882812 C76.10812226 -0.03699675 79.05403681 -0.02051287 82 0 C83.34677559 4.04032678 83.12418049 7.92088257 83.09375 12.1328125 C83.09016479 13.08970978 83.08657959 14.04660706 83.08288574 15.03250122 C83.0110023 28.59437831 82.76667405 42.15509023 82.53643799 55.71502686 C82.4747817 59.36989183 82.41522814 63.0247911 82.35546875 66.6796875 C82.23897343 73.78649234 82.12005285 80.89325423 82 88 C73.75 88 65.5 88 57 88 C56.505 84.04 56.505 84.04 56 80 C55.35933594 80.48210937 54.71867187 80.96421875 54.05859375 81.4609375 C53.19363281 82.09257812 52.32867187 82.72421875 51.4375 83.375 C50.59058594 84.00148438 49.74367187 84.62796875 48.87109375 85.2734375 C40.70882811 90.18190201 30.18276812 90.44128105 21.05078125 88.3125 C12.20753707 85.06230306 7.11335814 80.17643357 3.04296875 71.7578125 C-0.10835318 63.42510357 -0.41564155 55.59950486 -0.625 46.75 C-0.66235044 45.38711885 -0.6999518 44.02424456 -0.73779297 42.66137695 C-0.98659455 33.1712844 -1.09892657 23.68071264 -1.125 14.1875 C-1.12967285 12.9902832 -1.1343457 11.79306641 -1.13916016 10.55957031 C-1.13706543 9.4609668 -1.1349707 8.36236328 -1.1328125 7.23046875 C-1.13168457 6.26520264 -1.13055664 5.29993652 -1.12939453 4.30541992 C-1 2 -1 2 0 0 Z " fill="#FDFDFD" transform="translate(144,46)"/>
<path d="M0 0 C10.04760585 6.42542819 15.51555749 15.83184113 18.125 27.375 C20.19086022 39.55577957 20.19086022 39.55577957 17.8125 44.3125 C-0.9975 44.3125 -19.8075 44.3125 -39.1875 44.3125 C-37.16543776 54.04689249 -37.16543776 54.04689249 -31.125 61.125 C-24.18255167 63.93152166 -17.32095128 63.85917921 -10.2578125 61.58984375 C-7.18642353 59.69485471 -5.40042739 57.15383709 -3.1875 54.3125 C-0.91590311 55.60283905 1.35479625 56.89471402 3.625 58.1875 C4.26759766 58.55230469 4.91019531 58.91710937 5.57226562 59.29296875 C8.38018798 60.89333901 11.12214298 62.51892866 13.8125 64.3125 C13.48756754 69.67388564 10.54193881 72.76326517 6.8125 76.3125 C-4.52825157 85.59719929 -17.02675506 86.60294997 -31.1875 85.3125 C-40.88042195 83.59626994 -49.65272214 78.62978631 -56.06640625 71.109375 C-65.20695356 58.00563299 -66.30078044 44.90145968 -65.1875 29.3125 C-63.17917306 18.35277296 -56.95265836 8.23145375 -48.1875 1.3125 C-33.02474169 -7.90743529 -15.52707239 -8.54338166 0 0 Z M-35.5 19.75 C-38.46676998 24.17078385 -38.46676998 24.17078385 -39.1875 29.3125 C-28.9575 29.3125 -18.7275 29.3125 -8.1875 29.3125 C-6.71581854 24.52890434 -6.71581854 24.52890434 -8.625 21.25 C-12.64181316 16.64536052 -16.69597641 14.61847658 -22.75 13.875 C-28.01453054 14.54503116 -31.80715515 15.85754191 -35.5 19.75 Z " fill="#FDFDFD" transform="translate(864.1875,49.6875)"/>
<path d="M0 0 C6.10830129 5.18606756 10.69960195 11.3779213 13.9921875 18.69140625 C13.9921875 19.35140625 13.9921875 20.01140625 13.9921875 20.69140625 C10.74581019 21.86832982 7.4945477 23.03112899 4.2421875 24.19140625 C3.32179688 24.52527344 2.40140625 24.85914063 1.453125 25.203125 C0.56367188 25.51894531 -0.32578125 25.83476563 -1.2421875 26.16015625 C-2.05913086 26.45341797 -2.87607422 26.74667969 -3.71777344 27.04882812 C-6.0078125 27.69140625 -6.0078125 27.69140625 -10.0078125 27.69140625 C-11.31640625 26.046875 -11.31640625 26.046875 -12.4453125 23.87890625 C-15.29160264 18.98224904 -17.75148717 17.29887845 -23.2578125 15.81640625 C-28.04445327 15.65685156 -31.60361723 16.9672833 -36.0078125 18.69140625 C-36.9978125 19.02140625 -37.9878125 19.35140625 -39.0078125 19.69140625 C-40.17294863 21.8907356 -40.17294863 21.8907356 -41.0078125 24.69140625 C-41.3790625 25.74328125 -41.7503125 26.79515625 -42.1328125 27.87890625 C-43.89325402 35.54940146 -43.77887444 42.6621468 -40.0078125 49.69140625 C-37.89317128 53.06583374 -35.79093008 55.31687175 -32.1328125 57.06640625 C-25.93047751 58.30687325 -21.48487911 58.04013423 -15.94140625 55.046875 C-12.69992627 52.77456479 -10.35152827 49.85187145 -8.0078125 46.69140625 C-0.96494082 49.59912315 6.04878057 52.55284605 12.9921875 55.69140625 C11.99876716 63.42889146 6.18982469 70.26590244 0.2421875 75.06640625 C-1.14490797 75.98756617 -2.56459745 76.86092461 -4.0078125 77.69140625 C-4.84570312 78.17609375 -5.68359375 78.66078125 -6.546875 79.16015625 C-17.32016749 84.50228476 -29.64074161 84.23831292 -41.0703125 81.06640625 C-53.32062752 76.65937468 -61.23541395 68.95509205 -66.96484375 57.37890625 C-71.26274334 46.30416874 -72.33619861 31.29101202 -68.10546875 20.015625 C-62.494422 8.13458294 -55.64011946 -1.4696052 -43.0078125 -6.30859375 C-28.79159374 -11.29674068 -12.15240695 -8.88060508 0 0 Z " fill="#FEFEFE" transform="translate(341.0078125,52.30859375)"/>
<path d="M0 0 C13.86 0.495 13.86 0.495 28 1 C29.20398438 4.41859375 30.40796875 7.8371875 31.6484375 11.359375 C32.81610626 14.66916656 33.98466961 17.97864098 35.15332031 21.28808594 C35.96512962 23.58853677 36.77600827 25.88931625 37.5859375 28.19042969 C38.75015759 31.49761372 39.91771762 34.80360207 41.0859375 38.109375 C41.44746918 39.13867126 41.80900085 40.16796753 42.18148804 41.22845459 C42.69179062 42.66949554 42.69179062 42.66949554 43.21240234 44.13964844 C43.50996429 44.98348083 43.80752625 45.82731323 44.11410522 46.69671631 C44.95387663 48.88008147 45.91545533 50.9289806 47 53 C47.22328476 52.37803741 47.44656952 51.75607483 47.67662048 51.11526489 C49.99475735 44.65882716 52.31461959 38.20301131 54.63549805 31.74755859 C55.50215481 29.33626045 56.36836716 26.92480253 57.23413086 24.51318359 C58.47654088 21.05264142 59.72053278 17.59267153 60.96484375 14.1328125 C61.35341049 13.04944611 61.74197723 11.96607971 62.14231873 10.84988403 C62.50261673 9.8489975 62.86291473 8.84811096 63.23413086 7.81689453 C63.55167831 6.93309113 63.86922577 6.04928772 64.19639587 5.13870239 C65 3 65 3 66 1 C69.89539457 0.80252109 73.79132016 0.61876971 77.6875 0.4375 C78.79029297 0.38142578 79.89308594 0.32535156 81.02929688 0.26757812 C82.09599609 0.21923828 83.16269531 0.17089844 84.26171875 0.12109375 C85.73064575 0.05039673 85.73064575 0.05039673 87.22924805 -0.02172852 C89.95792705 -0.00032994 92.35079063 0.37205492 95 1 C92.65671183 8.33048372 89.88825948 15.4311713 87 22.5625 C85.9395225 25.19195181 84.88154418 27.8224043 83.82421875 30.453125 C83.53496017 31.17244705 83.2457016 31.8917691 82.94767761 32.63288879 C80.27879649 39.28141479 77.64728265 45.94450355 75.01953125 52.609375 C74.37599197 54.24053505 74.37599197 54.24053505 73.7194519 55.90464783 C71.98194318 60.3090744 70.2446225 64.71356672 68.51196289 69.11990356 C67.28758974 72.23317986 66.0600902 75.34520738 64.83203125 78.45703125 C64.45963821 79.40668762 64.08724518 80.35634399 63.7035675 81.33477783 C63.36157822 82.19987976 63.01958893 83.06498169 62.66723633 83.95629883 C62.36811844 84.71630692 62.06900055 85.476315 61.76081848 86.25935364 C61 88 61 88 60 89 C58.00035018 89.08758003 55.9976389 89.10696576 53.99609375 89.09765625 C52.17368164 89.09282227 52.17368164 89.09282227 50.31445312 89.08789062 C49.03505859 89.07951172 47.75566406 89.07113281 46.4375 89.0625 C45.15423828 89.05798828 43.87097656 89.05347656 42.54882812 89.04882812 C39.36583978 89.03699545 36.18294238 89.02051068 33 89 C26.52423836 74.02431882 20.33689184 58.97355582 14.51196289 43.73486328 C14.01455407 42.43389312 13.51707681 41.13294912 13.01953125 39.83203125 C12.77376846 39.18915161 12.52800568 38.54627197 12.27479553 37.88391113 C10.48491642 33.21923404 8.63544223 28.58077392 6.76171875 23.94921875 C6.24004907 22.65225551 5.71856145 21.35521902 5.19726562 20.05810547 C4.21362236 17.61075998 3.21713555 15.17007509 2.21289062 12.73095703 C1.77525391 11.64024902 1.33761719 10.54954102 0.88671875 9.42578125 C0.49701904 8.47098877 0.10731934 7.51619629 -0.29418945 6.5324707 C-1 4 -1 4 0 0 Z " fill="#FDFEFD" transform="translate(670,45)"/>
<path d="M0 0 C8.58 0 17.16 0 26 0 C26 29.04 26 58.08 26 88 C17.42 88 8.84 88 0 88 C0 58.96 0 29.92 0 0 Z " fill="#FDFEFE" transform="translate(239,46)"/>
<path d="M0 0 C8.58 0 17.16 0 26 0 C26 29.04 26 58.08 26 88 C17.75 88 9.5 88 1 88 C-0.79988399 86.20011601 -0.11993004 83.75000124 -0.12442017 81.35444641 C-0.12082489 80.54452744 -0.11722961 79.73460846 -0.11352539 78.90014648 C-0.11367142 78.05143982 -0.11381744 77.20273315 -0.1139679 76.32830811 C-0.11326848 73.50921109 -0.10547478 70.69017929 -0.09765625 67.87109375 C-0.09579217 65.92196183 -0.09436822 63.97282945 -0.09336853 62.0236969 C-0.08954255 56.88293168 -0.07971159 51.74219453 -0.06866455 46.60144043 C-0.05845215 41.35994852 -0.05387128 36.1184521 -0.04882812 30.87695312 C-0.03808939 20.58462108 -0.02049195 10.29231726 0 0 Z " fill="#FDFEFE" transform="translate(767,46)"/>
<path d="M0 0 C3.80093132 2.12822284 5.807749 4.41280797 7.75 8.375 C9.00010979 13.37543918 8.93948175 16.6974708 6.75 21.375 C3.74004212 25.88993682 1.13604458 28.31843304 -4.0703125 29.96875 C-9.45715494 30.97274931 -13.7991586 30.12728814 -18.625 27.625 C-23.04632695 23.83529119 -24.79401905 20.37597616 -25.3046875 14.4921875 C-25.18603427 9.89861238 -23.96365272 6.00782005 -20.59375 2.796875 C-14.1869638 -1.92677245 -7.41240935 -3.33904795 0 0 Z " fill="#FDFDFD" transform="translate(259.25,11.625)"/>
<path d="M0 0 C4.46940713 2.52007828 6.92274055 5.46066767 8.34765625 10.48046875 C9.24819087 15.56018343 8.64944842 19.19124793 6.0390625 23.6484375 C2.94002522 27.79926925 -0.63936002 29.48871095 -5.625 30.3125 C-10.34220819 30.63015712 -14.19585006 29.84811979 -18.25 27.375 C-21.26609576 24.56097517 -24.01936023 21.443196 -24.48828125 17.23828125 C-24.63524334 12.18742632 -24.51314206 8.12608834 -21.640625 3.84765625 C-15.74030164 -2.40071989 -7.62357419 -3.36001974 0 0 Z " fill="#FDFDFD" transform="translate(787.25,11.625)"/>
<path d="M0 0 C4 1 4 1 4 1 Z " fill="#FFFFFF" transform="translate(739,44)"/>
<path d="M0 0 C4 1 4 1 4 1 Z " fill="#FFFFFF" transform="translate(211,44)"/>
<path d="M0 0 C4 1 4 1 4 1 Z " fill="#FFCDF2" transform="translate(147,44)"/>
<path d="" fill="#FF3FBF" transform="translate(0,0)"/>
<path d="" fill="#FFFFFF" transform="translate(0,0)"/>
<path d="M0 0 C2 1 2 1 2 1 Z " fill="#FFFFFF" transform="translate(633,69)"/>
<path d="M0 0 C2 1 2 1 2 1 Z " fill="#FFFFFF" transform="translate(627,68)"/>
<path d="" fill="#FF00FF" transform="translate(0,0)"/>
<path d="" fill="#FFBFBF" transform="translate(0,0)"/>
<path d="M0 0 C2 1 2 1 2 1 Z " fill="#FFFFFF" transform="translate(755,44)"/>
<path d="M0 0 C2 1 2 1 2 1 Z " fill="#FFFFFF" transform="translate(747,44)"/>
<path d="M0 0 C2 1 2 1 2 1 Z " fill="#FFFFFF" transform="translate(683,44)"/>
<path d="M0 0 C2 1 2 1 2 1 Z " fill="#FFFFFF" transform="translate(675,44)"/>
<path d="M0 0 C2 1 2 1 2 1 Z " fill="#FFFFFF" transform="translate(427,44)"/>
<path d="M0 0 C2 1 2 1 2 1 Z " fill="#FFFFFF" transform="translate(424,44)"/>
<path d="M0 0 C2 1 2 1 2 1 Z " fill="#FFFFFF" transform="translate(419,44)"/>
<path d="M0 0 C2 1 2 1 2 1 Z " fill="#FFFFFF" transform="translate(163,44)"/>
<path d="M0 0 C2 1 2 1 2 1 Z " fill="#FFFFFF" transform="translate(155,44)"/>
<path d="M0 0 C2 1 2 1 2 1 Z " fill="#D42AD4" transform="translate(81,37)"/>
<path d="M0 0 C2 1 2 1 2 1 Z " fill="#FF00FF" transform="translate(117,26)"/>
<path d="M0 0 C2 1 2 1 2 1 Z " fill="#FFFFFF" transform="translate(547,12)"/>
<path d="M0 0 C2 1 2 1 2 1 Z " fill="#FFFFFF" transform="translate(459,12)"/>
<path d="" fill="#FF7F7F" transform="translate(0,0)"/>
<path d="" fill="#FFFFFF" transform="translate(0,0)"/>
<path d="" fill="#FFFFFF" transform="translate(0,0)"/>
<path d="" fill="#FFFFFF" transform="translate(0,0)"/>
<path d="" fill="#FFFFFF" transform="translate(0,0)"/>
<path d="" fill="#FFFFFF" transform="translate(0,0)"/>
<path d="" fill="#FFFFFF" transform="translate(0,0)"/>
<path d="" fill="#FFFFFF" transform="translate(0,0)"/>
<path d="" fill="#FFFFFF" transform="translate(0,0)"/>
<path d="" fill="#FFFFFF" transform="translate(0,0)"/>
<path d="" fill="#FF7F7F" transform="translate(0,0)"/>
<path d="" fill="#FF00FF" transform="translate(0,0)"/>
<path d="" fill="#FF7F7F" transform="translate(0,0)"/>
<path d="" fill="#FFFFFF" transform="translate(0,0)"/>
<path d="" fill="#FFFFFF" transform="translate(0,0)"/>
<path d="" fill="#FFFFFF" transform="translate(0,0)"/>
<path d="" fill="#FFFFFF" transform="translate(0,0)"/>
<path d="" fill="#FFFFFF" transform="translate(0,0)"/>
<path d="" fill="#FFFFFF" transform="translate(0,0)"/>
<path d="" fill="#FF00FF" transform="translate(0,0)"/>
<path d="" fill="#FFFFFF" transform="translate(0,0)"/>
<path d="" fill="#FFFFFF" transform="translate(0,0)"/>
<path d="" fill="#FFFFFF" transform="translate(0,0)"/>
<path d="" fill="#FFFFFF" transform="translate(0,0)"/>
<path d="" fill="#FFFFFF" transform="translate(0,0)"/>
<path d="" fill="#FFFFFF" transform="translate(0,0)"/>
<path d="" fill="#FFFFFF" transform="translate(0,0)"/>
<path d="" fill="#FF00FF" transform="translate(0,0)"/>
<path d="" fill="#FFFFFF" transform="translate(0,0)"/>
<path d="" fill="#FF00FF" transform="translate(0,0)"/>
<path d="" fill="#FFFFFF" transform="translate(0,0)"/>
<path d="" fill="#FFFFFF" transform="translate(0,0)"/>
<path d="" fill="#FFFFFF" transform="translate(0,0)"/>
<path d="" fill="#FF00FF" transform="translate(0,0)"/>
<path d="" fill="#FFFFFF" transform="translate(0,0)"/>
<path d="" fill="#FFFFFF" transform="translate(0,0)"/>
<path d="" fill="#FFFFFF" transform="translate(0,0)"/>
<path d="" fill="#FFFFFF" transform="translate(0,0)"/>
<path d="" fill="#FFFFFF" transform="translate(0,0)"/>
<path d="" fill="#FFFFFF" transform="translate(0,0)"/>
<path d="" fill="#FF00FF" transform="translate(0,0)"/>
<path d="" fill="#FFFFFF" transform="translate(0,0)"/>
<path d="" fill="#FF7F7F" transform="translate(0,0)"/>
<path d="" fill="#FFFFFF" transform="translate(0,0)"/>
<path d="" fill="#FFFFFF" transform="translate(0,0)"/>
<path d="" fill="#FFFFFF" transform="translate(0,0)"/>
<path d="" fill="#FFFFFF" transform="translate(0,0)"/>
<path d="" fill="#FFFFFF" transform="translate(0,0)"/>
<path d="" fill="#FFFFFF" transform="translate(0,0)"/>
<path d="" fill="#FFFFFF" transform="translate(0,0)"/>
<path d="" fill="#FFFFFF" transform="translate(0,0)"/>
<path d="" fill="#FF00FF" transform="translate(0,0)"/>
<path d="" fill="#FFFFFF" transform="translate(0,0)"/>
<path d="" fill="#FFFFFF" transform="translate(0,0)"/>
<path d="" fill="#FFFFFF" transform="translate(0,0)"/>
<path d="" fill="#FFFFFF" transform="translate(0,0)"/>
<path d="" fill="#FFFFFF" transform="translate(0,0)"/>
<path d="" fill="#FFFFFF" transform="translate(0,0)"/>
<path d="" fill="#FFFFFF" transform="translate(0,0)"/>
<path d="" fill="#FF00FF" transform="translate(0,0)"/>
<path d="" fill="#FFFFFF" transform="translate(0,0)"/>
<path d="" fill="#FFFFFF" transform="translate(0,0)"/>
<path d="" fill="#FFFFFF" transform="translate(0,0)"/>
<path d="" fill="#FFFFFF" transform="translate(0,0)"/>
<path d="" fill="#FFFFFF" transform="translate(0,0)"/>
<path d="" fill="#FF00FF" transform="translate(0,0)"/>
<path d="" fill="#FF00FF" transform="translate(0,0)"/>
<path d="" fill="#FFFFFF" transform="translate(0,0)"/>
<path d="" fill="#FFFFFF" transform="translate(0,0)"/>
<path d="" fill="#FFFFFF" transform="translate(0,0)"/>
<path d="" fill="#FFFFFF" transform="translate(0,0)"/>
<path d="" fill="#FFFFFF" transform="translate(0,0)"/>
<path d="" fill="#FFFFFF" transform="translate(0,0)"/>
<path d="" fill="#FFFFFF" transform="translate(0,0)"/>
<path d="" fill="#FFFFFF" transform="translate(0,0)"/>
<path d="" fill="#FFFFFF" transform="translate(0,0)"/>
<path d="" fill="#FFFFFF" transform="translate(0,0)"/>
<path d="" fill="#FFFFFF" transform="translate(0,0)"/>
<path d="" fill="#FFFFFF" transform="translate(0,0)"/>
<path d="" fill="#FFFFFF" transform="translate(0,0)"/>
<path d="" fill="#FFFFFF" transform="translate(0,0)"/>
<path d="" fill="#FFFFFF" transform="translate(0,0)"/>
<path d="" fill="#FFFFFF" transform="translate(0,0)"/>
<path d="" fill="#FFFFFF" transform="translate(0,0)"/>
<path d="" fill="#FFFFFF" transform="translate(0,0)"/>
<path d="" fill="#FFFFFF" transform="translate(0,0)"/>
<path d="" fill="#FFFFFF" transform="translate(0,0)"/>
<path d="" fill="#FFFFFF" transform="translate(0,0)"/>
<path d="" fill="#FFFFFF" transform="translate(0,0)"/>
<path d="" fill="#FFFFFF" transform="translate(0,0)"/>
<path d="" fill="#FFFFFF" transform="translate(0,0)"/>
<path d="" fill="#FF7F7F" transform="translate(0,0)"/>
<path d="" fill="#FF00FF" transform="translate(0,0)"/>
<path d="" fill="#AA55AA" transform="translate(0,0)"/>
<path d="" fill="#FF00FF" transform="translate(0,0)"/>
<path d="" fill="#FFFFFF" transform="translate(0,0)"/>
<path d="" fill="#FF00FF" transform="translate(0,0)"/>
<path d="" fill="#FFFFFF" transform="translate(0,0)"/>
<path d="" fill="#FFFFFF" transform="translate(0,0)"/>
<path d="" fill="#FF00FF" transform="translate(0,0)"/>
</svg>
